<svg xmlns="http://www.w3.org/2000/svg" fill="none" viewBox="0 0 24 24" stroke-width="1.5" stroke="currentColor">
  <path stroke-linecap="round" stroke-linejoin="round" d="M9 3.75H6.912a2.25 2.25 0 0 0-2.15 1.588L2.35 13.177a2.25 2.25 0 0 0-.1.661V18a2.25 2.25 0 0 0 2.25 2.25h15A2.25 2.25 0 0 0 21.75 18v-4.162c0-.224-.034-.447-.1-.661L19.24 5.338a2.25 2.25 0 0 0-2.15-1.588H15M2.25 13.5h3.86a2.25 2.25 0 0 1 2.008 1.24l.885 1.77a2.25 2.25 0 0 0 2.007 1.24h1.98a2.25 2.25 0 0 0 2.007-1.24l.885-1.77a2.25 2.25 0 0 1 2.007-1.24h3.86m-18 0h18" />
</svg>
