<svg xmlns="http://www.w3.org/2000/svg" fill="none" viewBox="0 0 24 24" stroke-width="1.5" stroke="currentColor">
  <path stroke-linecap="round" stroke-linejoin="round" d="M11 21.73a2 2 0 0 0 2 0l7-4A2 2 0 0 0 21 16V8a2 2 0 0 0-1-1.73l-7-4a2 2 0 0 0-2 0l-7 4A2 2 0 0 0 3 8v8a2 2 0 0 0 1 1.73z" />
  <path stroke-linecap="round" stroke-linejoin="round" d="M12 22V12" />
  <polyline stroke-linecap="round" stroke-linejoin="round" fill="none" points="3.29 7 12 12 20.71 7" />
  <path stroke-linecap="round" stroke-linejoin="round" d="m7.5 4.27 9 5.15" />
</svg>
